<svg xmlns="http://www.w3.org/2000/svg" viewBox="0 0 600 400" role="img" aria-label="Map of Bulgaria showing 28 oblasti with Silistra oblast highlighted and Tutrakan marked">
  <title>Bulgaria &#8212; Silistra oblast and Tutrakan</title>
  <g>
    <path d="M275.91,189.31L282.14,194.88L283.78,192.22L285.11,193.98L288.23,193.12L292.21,195.74L297.13,195.96L299.42,192.34L308.39,193.62L310.70,191.57L314.81,194.53L316.37,192.79L313.86,191.62L314.09,189.82L320.54,187.03L335.09,191.21L331.96,193.14L337.13,205.19L336.97,210.66L341.04,214.11L338.72,216.79L335.09,217.18L341.28,227.29L337.66,230.51L340.79,240.02L342.98,241.19L342.71,245.33L347.63,245.66L348.14,250.00L353.32,249.77L358.36,254.29L360.92,254.36L361.09,252.08L364.51,252.63L365.43,257.12L363.97,257.50L366.02,259.03L360.23,269.11L362.82,274.53L362.34,279.50L357.52,279.17L353.12,281.53L346.85,272.51L340.57,269.27L338.00,270.37L338.02,268.20L335.50,269.14L333.76,274.28L331.64,274.00L327.88,277.71L322.22,267.66L319.12,266.66L316.54,269.30L314.87,267.87L316.01,262.14L314.16,259.89L308.90,265.15L306.11,262.81L300.72,264.68L301.40,269.17L298.03,273.28L289.55,270.38L288.06,266.21L284.55,265.64L283.10,261.87L279.21,264.87L274.80,262.37L274.17,267.40L273.42,265.13L267.33,262.19L267.38,253.28L275.59,250.97L273.80,248.95L271.21,249.66L269.98,236.43L271.74,233.13L277.27,237.06L277.73,233.32L273.66,229.50L277.00,224.99L273.73,223.32L266.84,224.70L261.51,219.15L260.05,213.40L261.84,209.29L261.85,199.69L260.63,194.94L258.28,194.17L261.28,194.39L262.76,192.60L266.94,194.88L275.91,189.31Z M261.38,193.43L261.37,191.96L259.81,193.58L261.38,193.43Z" data-name="Стара Загора" fill="#E5E7EB" stroke="#9CA3AF" stroke-width="0.8" stroke-linejoin="round" />
    <path d="M456.61,145.54L452.50,149.78L453.98,153.70L452.47,154.70L456.79,155.10L456.68,158.16L458.49,159.19L454.02,158.52L453.24,160.45L447.91,160.11L444.36,162.11L443.62,165.89L446.17,169.53L456.27,165.84L461.82,166.44L466.53,168.39L465.56,171.71L476.43,178.19L479.53,176.90L486.19,179.55L486.28,177.59L493.21,176.14L511.42,184.83L518.03,181.51L516.79,159.32L521.92,144.21L519.73,143.19L519.76,140.20L527.89,137.08L532.67,123.75L531.24,125.61L526.41,117.76L521.01,115.89L515.83,121.48L513.91,120.55L511.30,115.23L505.17,112.11L501.86,107.38L495.21,105.91L492.54,100.80L490.43,100.00L489.37,103.48L486.50,105.37L482.91,104.35L479.93,95.63L475.95,91.97L475.39,94.65L464.85,102.13L468.31,104.30L466.82,106.88L468.46,111.19L461.89,118.31L465.29,124.52L459.13,131.49L462.08,134.08L464.43,142.24L460.78,142.10L458.21,144.56L456.67,143.85L457.80,144.61L454.23,143.00L456.61,145.54Z" data-name="Варна" fill="#E5E7EB" stroke="#9CA3AF" stroke-width="0.8" stroke-linejoin="round" />
    <path d="M133.10,273.65L134.96,265.50L139.96,265.26L140.40,262.97L147.92,265.88L148.34,261.97L150.87,262.26L149.92,265.17L154.40,268.06L152.84,269.38L152.70,277.24L155.58,280.02L149.44,285.72L150.64,288.85L149.36,292.49L152.40,297.08L152.13,304.11L159.24,308.90L161.77,308.34L175.35,320.09L177.10,323.76L180.62,325.14L178.39,331.43L181.34,333.22L177.94,334.72L176.21,340.51L177.52,348.21L174.55,349.92L172.59,347.91L168.61,351.41L163.49,346.18L161.35,349.99L153.39,351.50L150.45,356.48L142.15,354.72L138.79,358.94L131.14,357.61L128.90,355.37L121.22,355.21L112.51,360.37L110.88,356.04L107.36,355.97L102.87,358.90L101.81,364.06L98.26,365.76L75.78,363.39L79.16,361.58L77.96,353.90L80.41,350.39L78.49,344.76L79.82,336.47L77.63,328.10L80.79,326.31L85.26,318.84L82.96,311.71L78.99,311.10L71.00,291.68L70.31,281.32L74.44,278.21L73.48,275.95L77.37,272.42L78.73,275.31L84.68,275.97L87.21,278.98L99.93,272.15L119.14,277.73L125.71,272.40L133.10,273.65Z" data-name="Благоевград" fill="#E5E7EB" stroke="#9CA3AF" stroke-width="0.8" stroke-linejoin="round" />
    <path d="M430.83,248.68L434.95,250.00L432.07,255.11L436.88,259.14L432.46,261.40L432.00,263.78L436.37,271.93L441.87,271.98L449.58,276.01L455.63,276.87L457.49,272.19L463.88,272.34L467.65,276.82L470.28,277.15L472.77,283.29L477.52,287.95L483.18,289.02L487.56,295.38L488.83,291.50L492.23,291.38L493.07,288.94L497.52,289.23L499.69,286.63L503.34,286.42L508.27,290.28L512.09,290.24L510.54,285.61L513.53,283.80L513.80,285.09L514.39,283.22L518.83,287.27L524.54,285.20L529.78,286.01L525.91,276.41L504.77,254.13L504.87,249.55L508.38,247.19L506.36,245.54L507.52,243.68L503.53,244.64L501.16,240.66L502.14,238.56L500.60,236.57L502.58,234.77L500.53,234.92L499.29,232.76L496.26,234.51L495.71,229.92L493.72,228.84L492.60,230.74L489.84,228.37L489.10,230.50L485.48,229.13L483.12,232.70L480.39,228.63L479.43,230.81L477.12,228.58L478.32,228.82L478.38,225.22L480.18,227.24L483.47,217.55L492.61,216.17L495.56,217.71L494.25,208.97L503.52,205.03L501.10,203.39L502.63,199.03L517.80,199.90L516.20,183.36L508.05,184.52L493.21,176.14L486.28,177.59L486.19,179.55L479.53,176.90L476.43,178.19L465.56,171.71L466.53,168.39L458.13,165.91L438.32,173.41L436.97,170.40L429.81,171.81L428.52,170.09L419.65,170.06L416.33,175.43L409.56,176.39L406.72,175.25L407.97,172.22L401.88,172.76L400.79,179.56L402.50,184.63L400.32,186.22L403.26,189.22L402.03,190.48L408.09,192.88L409.92,196.94L412.04,197.23L411.68,200.64L418.46,209.11L420.61,218.60L423.89,221.34L423.44,223.12L427.20,224.49L427.17,229.82L433.08,229.62L435.09,232.03L433.98,234.78L425.54,237.48L425.45,239.89L430.41,243.02L430.83,248.68Z" data-name="Бургас" fill="#E5E7EB" stroke="#9CA3AF" stroke-width="0.8" stroke-linejoin="round" />
    <path d="M328.12,190.15L342.44,188.88L345.74,190.15L354.05,184.91L354.73,182.15L352.32,179.51L363.58,174.02L363.28,168.75L355.65,166.49L360.34,160.31L357.37,160.30L353.65,152.86L355.53,151.19L354.10,149.74L355.30,144.29L359.56,142.38L359.12,138.84L353.68,133.34L357.55,129.30L353.18,126.14L344.45,124.85L344.33,117.69L336.46,120.86L325.48,117.88L322.72,113.85L320.15,113.80L319.56,116.64L315.55,116.20L308.11,110.85L310.24,109.10L310.73,103.45L304.97,102.62L306.01,101.28L300.68,95.49L309.19,90.69L308.32,87.05L304.67,86.13L295.46,89.74L285.95,85.66L280.64,85.93L278.15,87.48L279.56,90.21L275.41,91.37L280.85,100.08L278.65,101.14L277.05,106.49L271.20,109.76L271.79,112.98L278.83,112.38L277.00,119.40L281.16,119.36L282.68,122.54L272.98,130.94L269.94,141.34L266.75,142.71L267.00,144.79L272.06,148.06L275.45,146.39L276.24,150.84L279.83,152.44L286.51,150.48L287.08,157.19L296.99,159.09L301.96,157.19L302.59,159.08L308.21,158.97L309.26,160.98L312.70,161.51L309.12,167.42L309.20,172.02L310.02,174.68L314.21,173.98L315.20,175.70L312.69,177.95L314.87,181.66L312.62,185.38L314.47,189.49L322.13,186.96L328.12,190.15Z" data-name="Велико Търново" fill="#E5E7EB" stroke="#9CA3AF" stroke-width="0.8" stroke-linejoin="round" />
    <path d="M82.00,67.23L70.57,63.45L68.19,57.46L71.90,45.77L83.04,42.64L86.26,35.18L81.99,32.49L74.96,31.73L58.18,19.89L53.42,18.05L50.63,18.93L49.88,22.88L47.82,24.16L49.20,25.04L47.58,31.20L48.56,36.39L40.88,37.73L40.22,41.63L29.73,43.50L29.68,51.24L27.85,52.79L25.09,66.43L29.11,72.93L29.60,80.51L37.05,87.30L36.89,97.26L40.76,107.46L44.52,108.33L46.46,111.72L52.10,112.88L53.63,116.63L59.77,117.61L65.50,108.69L64.69,103.51L66.54,104.54L67.45,102.09L69.69,102.79L72.31,97.55L77.18,94.67L77.90,84.95L83.27,81.01L87.41,80.70L85.74,75.50L79.08,73.29L79.66,70.81L86.78,70.64L82.00,67.23Z" data-name="Видин" fill="#E5E7EB" stroke="#9CA3AF" stroke-width="0.8" stroke-linejoin="round" />
    <path d="M138.06,69.04L149.34,67.70L150.25,69.70L158.31,73.29L170.22,74.54L186.08,81.80L199.87,80.29L197.93,86.57L195.70,85.67L194.73,88.01L189.49,86.38L186.05,91.65L182.40,92.57L178.89,90.27L177.56,92.04L173.59,91.40L170.46,98.77L172.73,107.25L177.59,110.13L167.30,123.01L168.74,128.56L166.81,130.85L168.31,133.10L167.22,136.59L174.05,140.68L172.53,147.51L173.64,150.98L167.89,150.09L168.60,156.57L166.94,160.82L160.24,157.40L154.36,157.86L153.63,155.98L149.53,155.47L144.25,160.84L137.88,157.03L132.58,164.73L122.38,152.50L125.46,147.75L124.72,145.86L119.95,145.70L116.82,142.69L124.23,136.91L118.81,133.02L110.52,130.99L110.46,128.96L116.03,123.14L116.53,119.29L119.32,117.23L117.54,110.68L121.86,103.65L123.60,102.61L127.70,105.71L130.52,104.25L131.36,105.43L134.18,101.33L138.84,101.30L130.66,95.06L138.45,79.02L138.06,69.04Z" data-name="Враца" fill="#E5E7EB" stroke="#9CA3AF" stroke-width="0.8" stroke-linejoin="round" />
    <path d="M249.99,171.84L248.43,170.81L249.14,162.16L255.69,160.26L253.79,159.06L254.84,157.80L252.61,153.07L253.59,150.31L257.12,149.33L256.38,140.83L266.81,142.67L268.41,146.49L272.01,148.05L275.45,146.39L276.24,150.84L279.83,152.44L286.51,150.48L287.08,157.19L296.99,159.09L301.96,157.19L302.59,159.08L308.21,158.97L309.26,160.98L312.70,161.51L309.12,167.42L309.20,172.02L310.02,174.68L314.21,173.98L315.20,175.70L312.69,177.95L314.87,181.68L312.62,185.42L314.66,189.58L313.63,191.29L316.34,193.10L314.00,194.51L310.70,191.57L308.39,193.62L299.38,192.34L297.13,195.96L292.21,195.74L288.23,193.12L285.11,193.98L283.78,192.22L282.17,194.89L275.91,189.27L266.94,194.88L262.76,192.60L261.29,194.24L261.81,190.64L256.67,180.99L257.13,178.72L251.67,179.02L249.29,175.15L249.99,171.84Z" data-name="Габрово" fill="#E5E7EB" stroke="#9CA3AF" stroke-width="0.8" stroke-linejoin="round" />
    <path d="M499.61,45.51L500.90,48.87L503.36,49.57L512.76,48.04L519.27,43.01L521.71,45.83L526.17,62.85L547.66,72.98L566.36,75.95L578.13,75.35L577.15,91.92L580.82,98.99L580.27,101.52L568.06,120.75L561.15,115.47L554.08,113.81L546.52,116.08L539.58,115.70L534.72,119.06L531.85,125.68L528.48,123.03L526.41,117.76L521.03,115.89L515.70,121.44L511.21,117.53L511.30,115.23L505.17,112.11L501.86,107.38L495.21,105.91L492.56,100.81L490.43,100.00L489.37,103.48L486.50,105.37L482.91,104.35L476.35,90.98L464.70,93.23L461.89,86.43L457.25,86.02L456.09,84.58L458.52,84.38L458.57,82.56L455.43,79.31L455.78,76.75L462.46,68.01L468.40,65.93L466.14,67.09L469.05,67.32L472.92,61.62L475.01,62.26L477.93,59.43L482.58,63.28L485.18,60.26L486.07,53.78L490.47,57.24L492.87,56.36L493.93,53.84L492.50,52.99L495.91,50.01L494.83,47.67L499.61,45.51Z" data-name="Добрич" fill="#E5E7EB" stroke="#9CA3AF" stroke-width="0.8" stroke-linejoin="round" />
    <path d="M270.45,307.89L266.54,308.77L264.55,312.91L266.93,316.75L268.70,329.99L264.47,333.26L261.15,333.08L259.92,335.92L265.37,345.25L267.19,345.08L269.21,340.80L274.83,344.07L273.05,351.57L275.61,351.65L275.74,353.64L273.82,354.36L274.31,357.73L271.29,362.35L275.93,365.47L280.64,374.31L285.60,375.76L298.16,372.25L302.21,369.38L306.73,370.87L309.82,365.70L314.59,367.55L318.51,366.25L323.26,369.08L323.96,365.93L329.43,365.48L333.07,362.23L337.57,364.64L338.60,367.48L344.44,365.48L344.00,359.54L340.31,359.37L341.82,357.28L334.49,356.54L332.94,354.36L333.09,351.26L337.19,347.73L327.12,339.58L329.76,339.26L329.95,333.69L334.69,330.45L333.33,329.22L334.28,326.25L327.73,325.60L323.60,330.78L320.45,329.05L317.70,330.99L313.66,329.31L317.46,321.17L316.18,316.23L312.55,312.59L308.08,313.73L305.38,311.67L303.02,312.52L299.47,308.78L296.16,309.32L292.99,302.82L290.74,305.77L287.81,305.26L286.74,308.13L280.50,303.58L281.41,302.00L278.62,295.82L272.74,299.60L272.70,303.84L269.62,305.79L270.45,307.89Z" data-name="Кърджали" fill="#E5E7EB" stroke="#9CA3AF" stroke-width="0.8" stroke-linejoin="round" />
    <path d="M34.35,206.19L32.38,216.18L39.93,220.97L43.04,226.37L39.66,236.26L35.82,236.70L33.82,243.97L25.86,245.12L25.32,246.59L33.36,254.95L35.02,259.88L37.91,260.56L38.90,265.67L46.73,272.28L53.70,276.36L57.07,275.82L59.06,278.60L64.37,278.51L67.33,281.50L72.72,280.79L74.48,278.12L73.40,276.07L76.94,272.38L78.73,275.31L84.68,275.97L86.93,278.99L99.93,272.15L119.14,277.73L129.05,269.89L127.97,266.95L122.81,265.84L121.79,261.72L115.01,263.83L110.25,262.55L113.70,254.71L117.22,254.55L116.56,249.99L110.31,245.71L108.34,239.22L105.32,240.90L103.85,238.45L97.27,240.18L96.95,238.22L93.90,238.47L91.91,234.70L89.43,239.94L85.48,238.88L82.81,235.38L80.12,237.39L77.75,236.04L74.56,237.49L73.52,240.72L64.96,238.89L63.57,234.12L60.07,234.29L58.16,228.71L55.17,226.80L56.58,225.95L55.97,221.99L51.24,221.11L51.37,218.19L47.97,215.55L45.67,207.75L40.30,209.32L34.35,206.19Z" data-name="Кюстендил" fill="#E5E7EB" stroke="#9CA3AF" stroke-width="0.8" stroke-linejoin="round" />
    <path d="M250.11,172.10L249.29,175.15L251.67,179.02L257.13,178.72L256.67,180.99L261.82,190.69L259.81,193.52L261.28,194.39L258.28,194.17L260.68,195.48L253.52,196.37L252.39,198.05L241.40,197.03L237.78,198.95L231.10,196.96L228.06,191.66L220.99,188.94L215.07,188.75L212.32,194.01L200.94,194.00L193.35,190.89L187.70,192.42L182.42,190.69L189.11,186.33L186.00,186.03L188.21,183.91L186.11,182.99L185.80,172.43L179.07,171.09L176.72,168.34L177.96,165.81L174.80,160.28L175.02,156.80L168.87,156.98L167.69,150.54L173.62,151.05L172.76,142.56L174.56,138.92L177.92,139.73L175.62,137.86L178.67,135.68L183.23,134.26L193.76,137.14L205.25,130.60L210.05,137.56L213.94,136.29L222.72,139.63L227.86,137.26L229.17,130.49L231.79,133.93L232.08,131.01L238.20,126.43L243.25,125.93L251.47,129.45L254.21,128.75L253.89,127.31L257.96,128.49L258.98,124.99L262.95,124.89L261.74,118.62L264.69,118.67L267.52,127.62L273.34,133.45L269.96,137.69L269.32,141.99L262.27,142.63L256.38,140.83L257.12,149.33L253.59,150.31L252.61,153.07L254.84,157.80L253.79,159.06L255.69,160.26L249.38,162.01L248.46,164.02L248.43,170.81L250.11,172.10Z" data-name="Ловеч" fill="#E5E7EB" stroke="#9CA3AF" stroke-width="0.8" stroke-linejoin="round" />
    <path d="M104.03,63.34L120.20,61.52L138.06,69.04L138.45,79.02L130.66,95.06L139.08,100.25L138.09,102.13L134.18,101.33L131.36,105.43L130.52,104.25L127.70,105.71L123.60,102.61L117.57,110.55L119.32,117.23L110.36,130.02L124.24,136.92L117.85,140.43L116.82,142.69L119.01,144.69L110.84,144.94L109.28,148.80L104.24,148.46L103.85,150.59L91.77,150.81L90.12,146.33L83.91,140.02L77.00,139.70L73.01,136.78L66.91,124.53L59.77,117.58L65.50,108.69L64.69,103.51L66.54,104.54L67.45,102.09L69.69,102.79L72.31,97.55L77.18,94.67L77.90,84.95L83.27,81.01L87.41,80.70L85.74,75.50L79.08,73.29L79.66,70.81L86.78,70.64L82.00,67.23L94.08,67.66L104.03,63.34Z" data-name="Монтана" fill="#E5E7EB" stroke="#9CA3AF" stroke-width="0.8" stroke-linejoin="round" />
    <path d="M210.02,270.41L210.15,267.76L213.22,266.40L215.50,267.88L218.92,265.68L214.80,261.23L214.59,252.30L211.30,248.84L214.20,245.22L209.94,240.45L209.66,229.64L204.97,226.05L208.60,220.60L207.79,216.20L202.64,217.97L196.09,209.17L191.37,208.52L184.82,210.16L182.11,215.06L178.25,215.36L174.84,218.27L168.08,215.37L161.38,218.45L167.15,228.50L169.43,227.73L170.17,229.57L174.54,227.89L176.98,230.01L173.80,236.97L167.18,238.41L165.88,244.60L170.59,248.07L169.07,251.04L165.31,251.34L162.11,248.08L159.24,256.19L150.01,263.34L149.92,265.17L154.40,268.06L152.84,269.38L152.70,277.24L155.60,279.80L149.44,285.72L150.64,288.85L149.36,292.49L152.40,297.08L152.13,304.11L159.24,308.90L161.77,308.34L175.35,320.09L177.13,323.78L180.69,318.66L183.93,318.41L186.64,315.18L188.16,317.55L195.10,319.06L200.15,313.21L198.96,310.29L200.75,304.13L203.27,300.80L208.58,299.49L211.04,295.50L209.06,292.74L211.45,290.75L213.24,284.59L210.16,277.91L210.58,274.14L212.55,272.92L210.02,270.41Z" data-name="Пазарджик" fill="#E5E7EB" stroke="#9CA3AF" stroke-width="0.8" stroke-linejoin="round" />
    <path d="M34.35,206.19L40.30,209.32L45.67,207.75L47.97,215.55L51.37,218.19L51.35,221.28L56.51,222.90L55.17,226.80L58.16,228.71L60.00,234.22L63.57,234.12L64.96,238.89L68.40,240.12L71.16,239.12L73.54,240.71L74.56,237.49L77.75,236.04L80.12,237.39L81.92,235.38L89.43,239.94L91.91,234.70L93.90,238.47L99.43,240.21L103.77,235.47L101.73,233.13L101.87,227.26L108.85,218.96L107.48,216.45L102.15,214.04L94.95,213.52L97.58,210.07L97.12,204.98L92.74,203.93L91.63,200.61L86.94,200.05L85.86,193.48L81.27,193.35L79.63,190.35L77.50,191.51L74.67,189.31L73.74,185.00L69.25,186.09L70.45,181.29L67.99,181.22L65.76,183.77L59.86,177.22L55.31,177.88L53.62,180.14L48.39,176.47L45.25,176.94L44.48,180.45L40.93,178.14L38.42,181.93L32.57,184.97L37.90,195.24L34.08,201.26L35.64,202.91L34.35,206.19Z" data-name="Перник" fill="#E5E7EB" stroke="#9CA3AF" stroke-width="0.8" stroke-linejoin="round" />
    <path d="M199.87,80.29L215.77,72.63L224.22,74.02L235.58,81.79L256.62,76.25L267.29,81.45L276.23,79.92L281.85,81.43L285.95,85.66L280.62,85.94L278.15,87.48L279.56,90.21L275.41,91.37L280.85,100.08L278.65,101.14L277.05,106.49L271.20,109.76L271.79,112.98L278.83,112.38L277.00,119.40L281.16,119.36L282.68,122.54L272.77,132.02L270.19,131.70L264.69,118.67L262.20,118.39L262.95,124.89L258.98,124.99L257.96,128.49L253.89,127.31L254.21,128.75L251.47,129.45L243.25,125.93L238.20,126.43L232.08,131.01L231.79,133.93L229.17,130.49L227.86,137.26L222.69,139.64L213.94,136.29L210.05,137.56L205.25,130.60L193.76,137.14L183.22,134.26L175.87,137.20L177.77,139.82L167.85,137.34L166.79,130.99L168.74,128.56L167.30,123.01L177.59,110.13L172.73,107.25L169.94,100.20L173.59,91.40L177.56,92.04L178.89,90.27L182.40,92.57L186.05,91.65L189.49,86.38L194.73,88.01L195.70,85.67L197.93,86.57L199.87,80.29Z" data-name="Плевен" fill="#E5E7EB" stroke="#9CA3AF" stroke-width="0.8" stroke-linejoin="round" />
    <path d="M266.54,308.77L270.55,308.05L269.62,305.79L272.70,303.84L272.74,299.60L277.24,295.86L282.32,296.39L286.91,290.16L288.20,286.49L286.24,278.67L290.84,272.77L288.06,266.21L284.55,265.64L283.10,261.87L279.21,264.87L274.80,262.37L274.17,267.40L273.42,265.13L267.24,262.03L267.38,253.28L275.59,250.97L273.80,248.95L271.21,249.66L269.98,236.43L271.74,233.13L277.27,237.06L277.73,233.32L273.66,229.50L277.00,224.99L273.73,223.32L266.84,224.70L261.51,219.15L260.05,213.40L262.09,204.93L260.40,195.22L253.23,196.47L252.45,198.04L245.36,196.62L237.78,198.95L231.10,196.96L226.40,190.58L215.07,188.75L212.33,194.00L205.42,194.00L202.83,202.71L214.03,212.03L212.09,217.09L208.15,217.82L208.59,220.61L204.97,226.05L209.66,229.64L209.94,240.45L214.20,245.22L211.30,248.84L214.59,252.30L214.80,261.23L218.92,265.68L215.50,267.88L212.97,266.46L209.46,269.09L212.55,272.92L210.58,274.14L210.16,277.91L213.24,284.59L210.21,291.41L211.35,293.43L216.43,293.76L219.94,299.40L229.34,295.12L238.03,297.48L240.75,303.15L236.54,308.02L239.51,312.24L242.87,312.37L240.97,316.90L246.05,322.04L247.27,319.30L251.75,318.52L252.40,315.04L256.83,315.92L256.42,308.56L260.17,303.30L262.90,307.97L266.12,307.44L266.54,308.77Z" data-name="Пловдив" fill="#E5E7EB" stroke="#9CA3AF" stroke-width="0.8" stroke-linejoin="round" />
    <path d="M390.51,110.70L382.46,111.98L380.94,110.51L381.82,104.45L371.59,97.40L368.62,98.36L368.64,101.32L365.69,101.91L362.52,96.82L363.39,87.71L368.77,86.48L369.71,83.44L371.97,85.55L373.76,84.36L374.82,88.67L377.13,89.78L380.06,87.33L385.12,88.71L388.75,84.59L385.34,80.82L386.88,75.52L389.73,74.00L389.03,70.39L386.54,69.23L380.13,70.68L380.62,64.06L379.04,60.32L377.17,60.33L382.02,59.01L382.24,50.46L387.16,49.69L391.04,49.84L394.26,54.23L399.79,52.04L402.11,54.25L401.03,58.02L413.23,63.26L414.27,61.09L413.61,62.13L416.76,62.62L415.78,65.39L417.60,66.60L423.05,62.19L425.31,67.44L428.54,67.76L430.33,72.66L435.13,74.97L440.91,85.11L436.82,85.70L433.99,91.28L429.31,92.96L428.36,90.72L425.69,92.89L425.52,96.29L420.06,97.72L419.61,100.71L422.29,103.80L420.61,105.62L417.31,105.30L416.93,108.31L412.52,109.12L415.15,111.64L413.75,115.04L409.59,115.24L406.36,124.83L392.23,122.33L390.58,117.91L394.19,117.33L390.31,113.25L390.51,110.70Z" data-name="Разград" fill="#E5E7EB" stroke="#9CA3AF" stroke-width="0.8" stroke-linejoin="round" />
    <path d="M349.41,120.02L344.06,120.30L344.45,124.85L349.06,125.94L352.19,123.74L349.63,124.15L349.41,120.02Z M381.66,51.97L382.02,59.01L377.17,60.33L379.04,60.32L380.62,64.06L380.13,70.68L387.84,69.40L389.68,72.06L385.35,80.45L388.75,84.59L385.12,88.71L380.06,87.33L377.03,89.76L374.82,88.67L373.76,84.36L371.97,85.55L369.69,83.45L368.77,86.48L363.33,87.94L362.54,96.95L365.69,101.91L361.21,100.56L352.86,102.20L351.56,109.97L347.32,115.22L344.68,115.00L343.72,118.37L336.61,120.89L325.48,117.88L322.72,113.85L320.15,113.80L319.56,116.64L315.55,116.20L308.11,110.85L310.24,109.10L310.73,103.45L304.97,102.62L306.01,101.28L300.68,95.49L309.19,90.69L308.32,87.05L317.57,81.87L324.80,81.47L329.62,78.71L332.77,73.81L338.05,70.85L344.32,61.26L354.08,55.20L358.10,47.62L361.27,45.94L368.92,44.72L381.98,39.15L381.37,40.87L385.29,43.69L382.87,45.60L383.90,49.98L381.66,51.97Z" data-name="Русе" fill="#E5E7EB" stroke="#9CA3AF" stroke-width="0.8" stroke-linejoin="round" />
    <path d="M430.34,71.94L434.53,74.26L437.95,80.37L443.44,77.51L449.06,77.84L447.34,81.92L458.52,84.38L455.43,79.31L456.65,74.28L458.57,74.22L462.47,68.00L470.94,66.15L472.92,61.62L475.01,62.26L477.93,59.43L480.92,63.25L484.39,62.07L486.07,53.78L490.47,57.24L492.88,56.36L493.93,53.84L492.50,52.99L495.91,50.01L494.83,47.67L499.61,45.51L497.65,40.42L494.97,38.33L492.17,42.53L479.48,41.30L473.27,42.53L469.44,36.96L463.64,34.97L462.08,28.69L455.55,29.98L450.91,27.13L445.33,27.96L441.91,26.17L436.72,28.20L432.39,27.39L416.01,34.89L381.98,39.15L382.32,42.05L385.26,42.86L382.87,45.60L383.49,50.22L391.04,49.84L394.26,54.23L399.79,52.04L402.11,54.25L401.03,58.02L413.23,63.26L414.27,61.09L413.61,62.13L416.76,62.62L415.78,65.39L417.77,66.65L423.05,62.19L425.31,67.44L428.55,67.77L430.34,71.94Z" data-name="Силистра" fill="#D1FAE5" stroke="#1D9E75" stroke-width="1.5" stroke-linejoin="round" />
    <path d="M398.35,171.69L398.38,173.17L402.51,174.43L400.77,179.03L402.50,184.67L400.32,186.22L403.26,189.22L402.03,190.48L408.13,192.91L412.45,198.28L412.36,201.85L405.59,201.02L408.59,203.51L407.55,209.92L403.86,210.36L405.29,209.36L404.18,208.76L403.20,211.62L399.99,212.76L400.78,214.04L397.96,215.81L394.54,214.65L391.39,217.62L386.78,215.09L383.70,219.24L384.86,224.31L382.47,224.55L379.17,229.50L373.05,229.72L369.55,227.63L370.42,234.30L368.91,235.80L364.80,234.19L365.43,240.64L369.07,238.26L371.99,240.05L364.51,252.63L361.09,252.08L360.18,254.63L353.90,251.69L353.32,249.77L348.14,250.00L347.63,245.66L342.71,245.33L342.98,241.19L340.79,240.02L339.85,233.60L338.25,232.85L338.17,229.16L341.28,227.29L335.09,217.18L338.72,216.79L341.04,214.11L336.97,210.66L337.13,205.19L331.80,192.37L338.49,189.10L345.74,190.15L354.05,184.91L354.73,182.15L352.12,179.76L362.24,175.86L364.37,172.28L363.58,169.81L365.69,167.24L369.84,167.87L370.74,162.92L373.85,161.89L373.62,160.41L380.89,159.87L380.44,162.01L384.93,161.10L388.39,164.49L392.22,163.52L392.13,162.01L396.45,162.58L400.48,165.24L398.35,171.69Z" data-name="Сливен" fill="#E5E7EB" stroke="#9CA3AF" stroke-width="0.8" stroke-linejoin="round" />
    <path d="M260.73,333.64L261.88,340.99L265.37,345.25L267.19,345.08L269.21,340.80L274.83,344.07L273.05,351.57L275.61,351.65L275.74,353.64L273.82,354.36L274.31,357.73L271.28,362.31L275.94,366.80L271.80,365.25L271.25,362.93L267.35,363.42L264.97,360.12L254.68,357.62L252.63,355.01L248.34,357.08L243.96,355.87L242.42,362.37L237.58,358.36L236.06,354.06L229.78,354.10L229.57,351.78L225.16,352.68L220.79,343.79L220.31,337.93L217.81,335.75L214.10,337.10L211.12,341.38L206.21,339.31L203.98,341.87L201.12,340.79L198.21,342.75L198.06,339.44L194.36,335.16L191.49,338.39L189.99,337.72L187.73,342.16L180.17,337.94L176.21,340.51L177.94,334.72L181.34,333.22L178.39,331.43L180.85,325.74L177.73,323.27L180.69,318.66L183.93,318.41L186.64,315.18L188.16,317.55L193.47,319.18L197.40,317.52L197.91,314.21L200.15,313.20L198.96,310.29L200.75,304.13L203.27,300.80L208.62,299.45L211.04,295.50L209.07,292.77L210.21,291.41L211.35,293.43L216.43,293.76L219.94,299.40L229.34,295.12L238.03,297.48L240.75,303.15L236.54,308.02L239.51,312.24L242.87,312.37L240.97,316.90L246.05,322.04L247.27,319.30L251.75,318.52L252.40,315.04L256.83,315.92L256.42,308.56L260.17,303.30L262.92,307.98L266.65,307.80L264.55,314.08L266.93,316.75L268.82,329.49L264.47,333.26L260.73,333.64Z" data-name="Смолян" fill="#E5E7EB" stroke="#9CA3AF" stroke-width="0.8" stroke-linejoin="round" />
    <path d="M62.20,181.39L61.86,178.20L59.86,177.22L62.47,172.92L63.01,166.20L73.19,159.65L74.97,154.39L80.73,150.62L81.01,144.00L83.18,140.40L89.73,145.86L91.77,150.81L103.85,150.59L105.05,148.30L108.34,149.41L110.84,144.94L124.13,145.39L125.46,147.75L122.38,152.50L132.58,164.73L134.93,159.62L138.54,156.85L143.67,160.78L149.53,155.47L153.63,155.98L154.36,157.86L160.24,157.40L165.71,160.95L167.88,160.08L168.56,156.52L170.99,157.86L175.02,156.80L174.80,160.28L177.96,165.81L176.64,168.22L179.07,171.09L185.80,172.43L186.11,182.99L188.21,183.91L186.00,186.03L189.18,185.56L182.49,191.01L188.07,192.49L196.86,191.33L200.94,194.00L205.42,194.00L202.83,202.71L209.96,207.53L214.08,213.20L211.12,217.54L204.93,215.98L202.64,217.97L196.09,209.17L191.37,208.52L184.82,210.16L182.11,215.06L178.25,215.36L174.84,218.27L168.13,215.37L163.73,216.74L161.38,218.45L167.13,228.48L169.43,227.73L170.17,229.57L174.54,227.89L176.98,229.98L173.80,236.97L167.17,238.44L165.88,244.60L170.64,248.75L167.72,252.11L162.11,248.08L156.93,258.85L153.94,259.20L151.42,262.21L148.34,261.97L147.92,265.88L140.40,262.97L139.96,265.26L135.94,264.59L133.10,273.68L130.13,273.93L126.31,272.30L129.29,268.76L126.87,266.34L122.81,265.84L121.79,261.72L115.01,263.83L110.25,262.55L113.70,254.71L117.19,254.82L116.57,250.02L110.31,245.71L108.35,239.23L105.30,240.90L104.95,238.84L102.14,238.76L103.77,235.47L101.73,233.13L101.87,227.26L107.07,219.99L119.12,228.30L122.04,226.35L120.01,222.66L122.52,220.97L127.55,222.53L130.12,226.24L130.74,234.50L141.10,233.39L138.23,223.96L134.40,223.38L131.10,219.99L131.95,210.05L129.50,207.35L126.73,207.26L126.13,203.07L130.75,202.32L130.95,199.52L135.06,198.81L142.42,182.67L138.78,183.36L138.45,181.21L135.96,180.75L131.69,184.69L124.17,179.07L115.29,183.29L106.91,176.43L104.14,180.13L104.49,188.32L100.29,190.82L101.64,193.23L99.87,196.50L89.97,195.48L87.24,198.47L85.55,197.92L85.86,193.48L81.27,193.35L79.63,190.35L77.50,191.51L74.67,189.31L73.74,185.00L69.25,186.09L70.45,181.29L67.99,181.22L65.96,183.77L62.20,181.39Z" data-name="Софийска" fill="#E5E7EB" stroke="#9CA3AF" stroke-width="0.8" stroke-linejoin="round" />
    <path d="M103.76,185.88L104.16,180.08L106.96,176.41L115.29,183.29L124.17,179.07L131.69,184.69L135.96,180.75L138.45,181.21L138.78,183.36L142.42,182.67L135.06,198.81L130.95,199.52L130.75,202.32L126.13,203.07L126.73,207.26L129.50,207.35L131.95,210.05L131.10,219.99L134.40,223.38L138.23,223.96L141.10,233.39L130.74,234.50L129.30,230.39L130.37,226.95L127.55,222.53L121.92,221.03L120.01,222.66L122.04,226.35L118.97,228.32L108.02,220.07L107.48,216.45L99.85,213.18L94.71,213.24L97.50,210.36L97.57,205.61L92.74,203.93L91.63,200.61L86.80,199.60L89.97,195.48L99.81,196.55L101.64,193.23L100.03,191.47L104.49,188.32L103.76,185.88Z" data-name="София-град" fill="#E5E7EB" stroke="#9CA3AF" stroke-width="0.8" stroke-linejoin="round" />
    <path d="M400.88,165.81L407.02,162.02L403.23,160.63L403.86,158.37L407.72,158.16L407.13,155.40L411.01,154.23L408.06,150.95L407.72,145.05L412.76,145.64L414.22,139.61L416.18,139.69L417.81,136.10L417.87,132.93L413.88,129.79L416.51,121.39L420.18,121.29L418.44,115.26L409.59,115.24L406.36,124.83L402.60,124.50L398.74,122.39L392.23,122.33L390.58,117.91L394.19,117.33L390.31,113.25L390.81,110.82L381.58,111.47L381.82,104.45L371.59,97.40L368.62,98.36L368.64,101.32L352.86,102.20L351.56,109.97L347.32,115.22L344.33,115.23L343.84,117.94L349.59,120.20L349.66,124.19L352.12,123.60L349.30,125.76L357.57,129.33L353.68,133.34L359.12,138.84L359.56,142.38L355.30,144.29L354.10,149.74L355.53,151.19L353.65,152.86L357.37,160.30L360.34,160.34L355.65,166.49L360.23,166.84L364.69,169.84L365.68,167.24L369.84,167.87L370.74,162.92L373.85,161.89L373.45,160.52L377.86,159.35L380.92,159.88L380.44,162.01L384.93,161.10L388.39,164.49L394.77,161.98L400.88,165.81Z" data-name="Търговище" fill="#E5E7EB" stroke="#9CA3AF" stroke-width="0.8" stroke-linejoin="round" />
    <path d="M328.81,325.16L334.28,326.27L333.33,329.22L334.69,330.45L329.95,333.69L329.76,339.26L327.12,339.56L337.19,347.73L332.84,351.69L334.30,356.44L341.75,357.22L340.41,359.65L344.00,359.54L343.63,363.49L345.82,365.83L351.74,362.04L360.64,361.40L363.07,353.57L366.78,351.39L362.51,345.91L365.04,339.09L364.58,337.40L361.99,337.48L361.22,328.19L357.26,328.78L355.06,325.79L354.31,320.17L364.22,314.14L374.21,318.62L380.71,318.66L378.18,313.77L381.69,305.52L396.77,305.18L400.83,295.59L393.79,284.67L396.50,280.65L393.91,272.19L396.71,265.50L392.90,266.52L392.55,263.45L390.61,265.71L388.57,263.49L385.92,265.81L382.69,263.44L379.29,264.64L369.84,260.60L368.37,261.53L366.02,259.03L360.23,269.11L362.82,274.53L362.47,279.29L357.52,279.17L354.02,281.88L351.21,280.37L346.85,272.51L340.57,269.27L338.00,270.37L338.02,268.20L335.50,269.14L333.76,274.28L331.64,274.00L327.88,277.71L322.22,267.66L319.12,266.66L316.54,269.30L314.87,267.87L316.01,262.14L314.16,259.89L308.90,265.15L306.11,262.81L300.72,264.68L301.40,269.17L298.03,273.28L290.94,270.28L290.29,274.62L286.24,278.68L288.23,287.84L283.00,295.78L279.20,296.73L280.50,303.58L286.76,308.14L287.81,305.26L290.74,305.77L292.99,302.82L296.16,309.32L299.47,308.78L303.02,312.52L305.38,311.67L308.08,313.73L312.55,312.59L316.18,316.23L317.46,321.17L313.66,329.31L317.70,330.99L320.45,329.05L323.60,330.78L328.81,325.16Z" data-name="Хасково" fill="#E5E7EB" stroke="#9CA3AF" stroke-width="0.8" stroke-linejoin="round" />
    <path d="M414.31,140.14L416.18,139.69L418.15,134.74L413.88,129.79L415.81,122.61L420.18,121.29L418.41,115.22L413.61,114.74L415.15,111.64L412.52,109.12L416.93,108.31L417.31,105.30L420.61,105.62L422.23,103.88L419.61,100.71L420.06,97.72L425.52,96.29L425.69,92.89L428.36,90.72L431.00,92.80L434.01,91.26L436.82,85.70L440.31,85.91L437.95,80.37L443.44,77.51L449.06,77.84L447.34,81.92L450.55,83.76L453.62,82.47L457.31,84.11L456.09,84.59L457.50,86.25L461.89,86.43L464.70,93.23L476.35,90.98L475.39,94.65L464.84,102.15L468.31,104.30L466.82,106.88L468.46,111.19L461.89,118.31L465.29,124.52L459.13,131.49L462.08,134.08L464.43,142.24L460.78,142.10L458.21,144.56L453.81,144.08L456.77,145.48L452.50,149.78L453.98,153.70L452.48,154.75L456.79,155.10L456.68,158.16L458.49,159.19L454.02,158.52L453.24,160.45L447.91,160.11L444.36,162.11L443.62,165.89L446.26,167.89L445.87,170.29L438.32,173.41L436.97,170.40L429.81,171.81L428.52,170.09L419.65,170.06L416.34,175.42L413.77,176.24L406.88,175.56L407.82,172.16L398.38,173.17L399.57,166.27L407.02,162.02L403.23,160.63L403.86,158.37L407.72,158.16L407.13,155.40L411.01,154.23L408.06,150.95L407.72,145.05L412.55,145.83L414.31,140.14Z" data-name="Шумен" fill="#E5E7EB" stroke="#9CA3AF" stroke-width="0.8" stroke-linejoin="round" />
    <path d="M398.78,292.80L404.33,286.45L415.64,289.00L418.86,285.25L423.76,287.72L426.31,285.07L434.74,284.37L436.21,279.47L440.08,277.31L439.96,274.24L443.08,273.41L436.37,271.93L435.43,267.84L432.72,266.68L431.92,262.35L436.88,259.14L432.07,255.11L434.95,250.00L431.20,249.32L430.41,243.02L425.45,239.89L426.08,236.64L433.98,234.78L435.09,232.03L433.08,229.62L427.33,230.02L427.20,224.49L423.44,223.12L423.89,221.34L420.61,218.60L417.53,207.57L412.79,202.02L408.62,200.28L405.52,201.21L408.59,203.51L407.54,209.93L403.86,210.36L405.29,209.36L404.18,208.76L403.20,211.62L399.99,212.76L400.78,214.04L397.96,215.81L394.54,214.65L391.39,217.62L386.78,215.09L383.70,219.24L384.86,224.31L382.47,224.55L381.01,228.52L375.79,230.16L369.55,227.63L370.38,234.36L368.91,235.80L364.80,234.19L365.58,240.77L369.07,238.26L371.99,240.05L365.11,251.05L363.86,253.91L365.43,257.12L363.97,257.50L368.37,261.53L369.84,260.60L379.29,264.64L382.69,263.44L385.92,265.81L388.57,263.49L390.61,265.71L392.55,263.45L392.90,266.52L396.71,265.50L393.91,272.19L396.50,280.65L393.79,284.67L398.78,292.80Z" data-name="Ямбол" fill="#E5E7EB" stroke="#9CA3AF" stroke-width="0.8" stroke-linejoin="round" />
  </g>
  <circle cx="403.99" cy="39.39" r="5" fill="#1D9E75" stroke="white" stroke-width="1.5" />
  <text x="411.99" y="42.39" font-family="-apple-system, BlinkMacSystemFont, 'Segoe UI', Roboto, Helvetica, Arial, sans-serif" font-size="9" fill="#065F46">Тутракан</text>
  <g>
    <rect x="14" y="340" width="190" height="46" fill="white" fill-opacity="0.85" stroke="#9CA3AF" stroke-width="0.5" rx="4" />
    <rect x="24" y="350" width="14" height="10" fill="#D1FAE5" stroke="#1D9E75" stroke-width="1" />
    <text x="44" y="358" font-family="-apple-system, BlinkMacSystemFont, 'Segoe UI', Roboto, Helvetica, Arial, sans-serif" font-size="9" fill="#374151">Силистра (SBS пилот)</text>
    <circle cx="31" cy="374" r="4" fill="#1D9E75" stroke="white" stroke-width="1" />
    <text x="44" y="377" font-family="-apple-system, BlinkMacSystemFont, 'Segoe UI', Roboto, Helvetica, Arial, sans-serif" font-size="9" fill="#374151">Тутракан</text>
  </g>
</svg>
